ply
format ascii 1.0
comment Created by Blender 2.79 (sub 1) - www.blender.org, source file: 'InclineConveyorNete.blend'
element vertex 610
property float x
property float y
property float z
property float nx
property float ny
property float nz
element face 184
property list uchar uint vertex_indices
end_header
-1.005753 5.003449 6.350860 0.097968 0.406348 -0.908451
-1.005753 6.305029 6.933053 0.097968 0.406348 -0.908451
-1.003737 6.304948 6.933235 0.097968 0.406348 -0.908451
-1.003737 5.003368 6.351041 0.097968 0.406348 -0.908451
-1.003737 5.003368 6.351041 0.290266 0.390733 -0.873541
-1.003737 6.304948 6.933235 0.290266 0.390733 -0.873541
-1.001798 6.304708 6.933772 0.290266 0.390733 -0.873541
-1.001798 5.003128 6.351578 0.290266 0.390733 -0.873541
-1.001798 5.003128 6.351578 0.471408 0.360096 -0.805050
-1.001798 6.304708 6.933772 0.471408 0.360096 -0.805050
-1.000011 6.304318 6.934643 0.471408 0.360096 -0.805050
-1.000011 5.002738 6.352450 0.471408 0.360096 -0.805050
-1.000011 5.002738 6.352450 0.634410 0.315624 -0.705625
-1.000011 6.304318 6.934643 0.634410 0.315624 -0.705625
-0.998445 6.303793 6.935817 0.634410 0.315624 -0.705625
-0.998445 5.002213 6.353624 0.634410 0.315624 -0.705625
-0.998445 5.002213 6.353624 0.773003 0.259034 -0.579110
-0.998445 6.303793 6.935817 0.773003 0.259034 -0.579110
-0.997159 6.303154 6.937247 0.773003 0.259034 -0.579110
-0.997159 5.001574 6.355053 0.773003 0.259034 -0.579110
-0.997159 5.001574 6.355053 0.881930 0.192470 -0.430296
-0.997159 6.303154 6.937247 0.881930 0.192470 -0.430296
-0.996204 6.302424 6.938878 0.881930 0.192470 -0.430296
-0.996204 5.000844 6.356685 0.881930 0.192470 -0.430296
-0.996204 5.000844 6.356685 0.956944 0.118522 -0.264975
-0.996204 6.302424 6.938878 0.956944 0.118522 -0.264975
-0.995616 6.301632 6.940648 0.956944 0.118522 -0.264975
-0.995616 5.000052 6.358455 0.956944 0.118522 -0.264975
-0.995616 5.000052 6.358455 0.995184 0.040024 -0.089480
-0.995616 6.301632 6.940648 0.995184 0.040024 -0.089480
-0.995417 6.300809 6.942489 0.995184 0.040024 -0.089480
-0.995417 4.999228 6.360295 0.995184 0.040024 -0.089480
-0.995417 4.999228 6.360295 0.995184 -0.040024 0.089480
-0.995417 6.300809 6.942489 0.995184 -0.040024 0.089480
-0.995616 6.299985 6.944329 0.995184 -0.040024 0.089480
-0.995616 4.998405 6.362136 0.995184 -0.040024 0.089480
-0.995616 4.998405 6.362136 0.956944 -0.118522 0.264975
-0.995616 6.299985 6.944329 0.956944 -0.118522 0.264975
-0.996204 6.299194 6.946099 0.956944 -0.118522 0.264975
-0.996204 4.997613 6.363906 0.956944 -0.118522 0.264975
-0.996204 4.997613 6.363906 0.881930 -0.192470 0.430296
-0.996204 6.299194 6.946099 0.881930 -0.192470 0.430296
-0.997159 6.298464 6.947731 0.881930 -0.192470 0.430296
-0.997159 4.996884 6.365537 0.881930 -0.192470 0.430296
-0.997159 4.996884 6.365537 0.773003 -0.259034 0.579110
-0.997159 6.298464 6.947731 0.773003 -0.259034 0.579110
-0.998445 6.297824 6.949160 0.773003 -0.259034 0.579110
-0.998445 4.996244 6.366967 0.773003 -0.259034 0.579110
-0.998445 4.996244 6.366967 0.634410 -0.315624 0.705625
-0.998445 6.297824 6.949160 0.634410 -0.315624 0.705625
-1.000011 6.297300 6.950334 0.634410 -0.315624 0.705625
-1.000011 4.995719 6.368141 0.634410 -0.315624 0.705625
-1.000011 4.995719 6.368141 0.471408 -0.360096 0.805050
-1.000011 6.297300 6.950334 0.471408 -0.360096 0.805050
-1.001798 6.296910 6.951206 0.471408 -0.360096 0.805050
-1.001798 4.995329 6.369012 0.471408 -0.360096 0.805050
-1.001798 4.995329 6.369012 0.290266 -0.390733 0.873541
-1.001798 6.296910 6.951206 0.290266 -0.390733 0.873541
-1.003737 6.296669 6.951743 0.290266 -0.390733 0.873541
-1.003737 4.995090 6.369549 0.290266 -0.390733 0.873541
-1.003737 4.995090 6.369549 0.097968 -0.406348 0.908451
-1.003737 6.296669 6.951743 0.097968 -0.406348 0.908451
-1.005753 6.296588 6.951924 0.097968 -0.406348 0.908451
-1.005753 4.995008 6.369730 0.097968 -0.406348 0.908451
-1.005753 4.995008 6.369730 -0.097968 -0.406348 0.908451
-1.005753 6.296588 6.951924 -0.097968 -0.406348 0.908451
-1.007770 6.296669 6.951743 -0.097968 -0.406348 0.908451
-1.007770 4.995090 6.369549 -0.097968 -0.406348 0.908451
-1.007770 4.995090 6.369549 -0.290266 -0.390733 0.873541
-1.007770 6.296669 6.951743 -0.290266 -0.390733 0.873541
-1.009709 6.296910 6.951206 -0.290266 -0.390733 0.873541
-1.009709 4.995329 6.369012 -0.290266 -0.390733 0.873541
-1.009709 4.995329 6.369012 -0.471408 -0.360096 0.805050
-1.009709 6.296910 6.951206 -0.471408 -0.360096 0.805050
-1.011496 6.297300 6.950334 -0.471408 -0.360096 0.805050
-1.011496 4.995719 6.368141 -0.471408 -0.360096 0.805050
-1.011496 4.995719 6.368141 -0.634410 -0.315624 0.705625
-1.011496 6.297300 6.950334 -0.634410 -0.315624 0.705625
-1.013062 6.297824 6.949160 -0.634410 -0.315624 0.705625
-1.013062 4.996244 6.366967 -0.634410 -0.315624 0.705625
-1.013062 4.996244 6.366967 -0.773003 -0.259034 0.579110
-1.013062 6.297824 6.949160 -0.773003 -0.259034 0.579110
-1.014348 6.298464 6.947731 -0.773003 -0.259034 0.579110
-1.014348 4.996884 6.365537 -0.773003 -0.259034 0.579110
-1.014348 4.996884 6.365537 -0.881942 -0.192461 0.430275
-1.014348 6.298464 6.947731 -0.881942 -0.192461 0.430275
-1.015303 6.299194 6.946099 -0.881942 -0.192461 0.430275
-1.015303 4.997613 6.363906 -0.881942 -0.192461 0.430275
-1.015303 4.997613 6.363906 -0.956927 -0.118544 0.265024
-1.015303 6.299194 6.946099 -0.956927 -0.118544 0.265024
-1.015891 6.299985 6.944329 -0.956927 -0.118544 0.265024
-1.015891 4.998405 6.362136 -0.956927 -0.118544 0.265024
-1.015891 4.998405 6.362136 -0.995184 -0.040024 0.089480
-1.015891 6.299985 6.944329 -0.995184 -0.040024 0.089480
-1.016090 6.300809 6.942489 -0.995184 -0.040024 0.089480
-1.016090 4.999228 6.360295 -0.995184 -0.040024 0.089480
-1.016090 4.999228 6.360295 -0.995179 0.040044 -0.089524
-1.016090 6.300809 6.942489 -0.995179 0.040044 -0.089524
-1.015891 6.301632 6.940648 -0.995179 0.040044 -0.089524
-1.015891 5.000052 6.358455 -0.995179 0.040044 -0.089524
-1.015891 5.000052 6.358455 -0.956935 0.118534 -0.265001
-1.015891 6.301632 6.940648 -0.956935 0.118534 -0.265001
-1.015303 6.302424 6.938878 -0.956935 0.118534 -0.265001
-1.015303 5.000844 6.356685 -0.956935 0.118534 -0.265001
-1.015303 5.000844 6.356685 -0.881942 0.192461 -0.430275
-1.015303 6.302424 6.938878 -0.881942 0.192461 -0.430275
-1.014348 6.303154 6.937247 -0.881942 0.192461 -0.430275
-1.014348 5.001574 6.355053 -0.881942 0.192461 -0.430275
-1.014348 5.001574 6.355053 -0.773003 0.259034 -0.579110
-1.014348 6.303154 6.937247 -0.773003 0.259034 -0.579110
-1.013062 6.303793 6.935817 -0.773003 0.259034 -0.579110
-1.013062 5.002213 6.353624 -0.773003 0.259034 -0.579110
-1.013062 5.002213 6.353624 -0.634410 0.315624 -0.705625
-1.013062 6.303793 6.935817 -0.634410 0.315624 -0.705625
-1.011496 6.304318 6.934643 -0.634410 0.315624 -0.705625
-1.011496 5.002738 6.352450 -0.634410 0.315624 -0.705625
-1.011496 5.002738 6.352450 -0.471408 0.360096 -0.805050
-1.011496 6.304318 6.934643 -0.471408 0.360096 -0.805050
-1.009709 6.304708 6.933772 -0.471408 0.360096 -0.805050
-1.009709 5.003128 6.351578 -0.471408 0.360096 -0.805050
-1.001798 6.304708 6.933772 0.000079 0.913148 0.407629
-1.003737 6.304948 6.933235 0.000079 0.913148 0.407629
-1.005753 6.305029 6.933053 0.000079 0.913148 0.407629
-1.005753 6.305029 6.933053 -0.000079 0.913148 0.407629
-1.007770 6.304948 6.933235 -0.000079 0.913148 0.407629
-1.009709 6.304708 6.933772 -0.000079 0.913148 0.407629
-1.009709 6.304708 6.933772 -0.000133 0.912881 0.408226
-1.011496 6.304318 6.934643 -0.000133 0.912881 0.408226
-1.013062 6.303793 6.935817 -0.000133 0.912881 0.408226
-1.013062 6.303793 6.935817 0.000258 0.912806 0.408392
-1.014348 6.303154 6.937247 0.000258 0.912806 0.408392
-1.015303 6.302424 6.938878 0.000258 0.912806 0.408392
-1.015303 6.302424 6.938878 -0.002253 0.913020 0.407908
-1.015891 6.301632 6.940648 -0.002253 0.913020 0.407908
-1.016090 6.300809 6.942489 -0.002253 0.913020 0.407908
-1.016090 6.300809 6.942489 -0.000858 0.912769 0.408474
-1.015891 6.299985 6.944329 -0.000858 0.912769 0.408474
-1.015303 6.299194 6.946099 -0.000858 0.912769 0.408474
-1.015303 6.299194 6.946099 -0.000674 0.912616 0.408818
-1.014348 6.298464 6.947731 -0.000674 0.912616 0.408818
-1.013062 6.297824 6.949160 -0.000674 0.912616 0.408818
-1.013062 6.297824 6.949160 0.000340 0.913122 0.407686
-1.011496 6.297300 6.950334 0.000340 0.913122 0.407686
-1.009709 6.296910 6.951206 0.000340 0.913122 0.407686
-1.009709 6.296910 6.951206 -0.000028 0.912700 0.408629
-1.007770 6.296669 6.951743 -0.000028 0.912700 0.408629
-1.005753 6.296588 6.951924 -0.000028 0.912700 0.408629
-1.005753 6.296588 6.951924 0.000028 0.912700 0.408629
-1.003737 6.296669 6.951743 0.000028 0.912700 0.408629
-1.001798 6.296910 6.951206 0.000028 0.912700 0.408629
-1.001798 6.296910 6.951206 -0.000340 0.913122 0.407686
-1.000011 6.297300 6.950334 -0.000340 0.913122 0.407686
-0.998445 6.297824 6.949160 -0.000340 0.913122 0.407686
-0.998445 6.297824 6.949160 0.000674 0.912616 0.408818
-0.997159 6.298464 6.947731 0.000674 0.912616 0.408818
-0.996204 6.299194 6.946099 0.000674 0.912616 0.408818
-0.996204 6.299194 6.946099 0.000858 0.912769 0.408474
-0.995616 6.299985 6.944329 0.000858 0.912769 0.408474
-0.995417 6.300809 6.942489 0.000858 0.912769 0.408474
-0.995417 6.300809 6.942489 0.001291 0.912944 0.408084
-0.995616 6.301632 6.940648 0.001291 0.912944 0.408084
-0.996204 6.302424 6.938878 0.001291 0.912944 0.408084
-0.996204 6.302424 6.938878 -0.000258 0.912806 0.408393
-0.997159 6.303154 6.937247 -0.000258 0.912806 0.408393
-0.998445 6.303793 6.935817 -0.000258 0.912806 0.408393
-0.998445 6.303793 6.935817 0.000133 0.912881 0.408226
-1.000011 6.304318 6.934643 0.000133 0.912881 0.408226
-1.001798 6.304708 6.933772 0.000133 0.912881 0.408226
-1.001798 6.304708 6.933772 0.000000 0.912985 0.407994
-1.005753 6.305029 6.933053 0.000000 0.912985 0.407994
-1.009709 6.304708 6.933772 0.000000 0.912985 0.407994
-1.009709 6.304708 6.933772 -0.000229 0.912939 0.408096
-1.013062 6.303793 6.935817 -0.000229 0.912939 0.408096
-1.015303 6.302424 6.938878 -0.000229 0.912939 0.408096
-1.015303 6.302424 6.938878 0.000000 0.912840 0.408318
-1.016090 6.300809 6.942489 0.000000 0.912840 0.408318
-1.015303 6.299194 6.946099 0.000000 0.912840 0.408318
-1.015303 6.299194 6.946099 -0.000338 0.912708 0.408612
-1.013062 6.297824 6.949160 -0.000338 0.912708 0.408612
-1.009709 6.296910 6.951206 -0.000338 0.912708 0.408612
-1.009709 6.296910 6.951206 0.000000 0.912759 0.408499
-1.005753 6.296588 6.951924 0.000000 0.912759 0.408499
-1.001798 6.296910 6.951206 0.000000 0.912759 0.408499
-1.001798 6.296910 6.951206 0.000338 0.912708 0.408612
-0.998445 6.297824 6.949160 0.000338 0.912708 0.408612
-0.996204 6.299194 6.946099 0.000338 0.912708 0.408612
-0.996204 6.299194 6.946099 0.000000 0.912840 0.408318
-0.995417 6.300809 6.942489 0.000000 0.912840 0.408318
-0.996204 6.302424 6.938878 0.000000 0.912840 0.408318
-0.996204 6.302424 6.938878 0.000229 0.912939 0.408096
-0.998445 6.303793 6.935817 0.000229 0.912939 0.408096
-1.001798 6.304708 6.933772 0.000229 0.912939 0.408096
-1.001798 6.304708 6.933772 -0.000000 0.912846 0.408304
-1.009709 6.304708 6.933772 -0.000000 0.912846 0.408304
-1.015303 6.302424 6.938878 -0.000000 0.912846 0.408304
-1.015303 6.302424 6.938878 -0.000015 0.912840 0.408318
-1.015303 6.299194 6.946099 -0.000015 0.912840 0.408318
-1.009709 6.296910 6.951206 -0.000015 0.912840 0.408318
-1.009709 6.296910 6.951206 0.000000 0.912846 0.408304
-1.001798 6.296910 6.951206 0.000000 0.912846 0.408304
-0.996204 6.299194 6.946099 0.000000 0.912846 0.408304
-0.996204 6.299194 6.946099 -0.000015 0.912840 0.408318
-0.996204 6.302424 6.938878 -0.000015 0.912840 0.408318
-1.001798 6.304708 6.933772 -0.000015 0.912840 0.408318
-1.001798 6.304708 6.933772 0.000003 0.912843 0.408311
-1.015303 6.302424 6.938878 0.000003 0.912843 0.408311
-1.009709 6.296910 6.951206 0.000003 0.912843 0.408311
-0.996204 6.299194 6.946099 0.000003 0.912843 0.408311
-1.009709 5.003128 6.351578 -0.290266 0.390733 -0.873541
-1.009709 6.304708 6.933772 -0.290266 0.390733 -0.873541
-1.007770 6.304948 6.933235 -0.290266 0.390733 -0.873541
-1.007770 5.003368 6.351041 -0.290266 0.390733 -0.873541
-1.005753 6.305029 6.933053 -0.097968 0.406348 -0.908451
-1.005753 5.003449 6.350860 -0.097968 0.406348 -0.908451
-1.007770 5.003368 6.351041 -0.097968 0.406348 -0.908451
-1.007770 6.304948 6.933235 -0.097968 0.406348 -0.908451
-1.007770 5.003368 6.351041 0.000000 -0.912818 -0.408366
-1.005753 5.003449 6.350860 0.000000 -0.912818 -0.408366
-1.003737 5.003368 6.351041 0.000000 -0.912818 -0.408366
-1.003737 5.003368 6.351041 -0.000212 -0.913024 -0.407905
-1.001798 5.003128 6.351578 -0.000212 -0.913024 -0.407905
-1.000011 5.002738 6.352450 -0.000212 -0.913024 -0.407905
-1.000011 5.002738 6.352450 0.000682 -0.912613 -0.408824
-0.998445 5.002213 6.353624 0.000682 -0.912613 -0.408824
-0.997159 5.001574 6.355053 0.000682 -0.912613 -0.408824
-0.997159 5.001574 6.355053 -0.001196 -0.913024 -0.407905
-0.996204 5.000844 6.356685 -0.001196 -0.913024 -0.407905
-0.995616 5.000052 6.358455 -0.001196 -0.913024 -0.407905
-0.995616 5.000052 6.358455 -0.001096 -0.912848 -0.408298
-0.995417 4.999228 6.360295 -0.001096 -0.912848 -0.408298
-0.995616 4.998405 6.362136 -0.001096 -0.912848 -0.408298
-0.995616 4.998405 6.362136 -0.000829 -0.912681 -0.408671
-0.996204 4.997613 6.363906 -0.000829 -0.912681 -0.408671
-0.997159 4.996884 6.365537 -0.000829 -0.912681 -0.408671
-0.997159 4.996884 6.365537 0.000482 -0.913054 -0.407838
-0.998445 4.996244 6.366967 0.000482 -0.913054 -0.407838
-1.000011 4.995719 6.368141 0.000482 -0.913054 -0.407838
-1.000011 4.995719 6.368141 -0.000450 -0.912435 -0.409222
-1.001798 4.995329 6.369012 -0.000450 -0.912435 -0.409222
-1.003737 4.995090 6.369549 -0.000450 -0.912435 -0.409222
-1.003737 4.995090 6.369549 0.000000 -0.912818 -0.408366
-1.005753 4.995008 6.369730 0.000000 -0.912818 -0.408366
-1.007770 4.995090 6.369549 0.000000 -0.912818 -0.408366
-1.007770 4.995090 6.369549 0.000450 -0.912435 -0.409222
-1.009709 4.995329 6.369012 0.000450 -0.912435 -0.409222
-1.011496 4.995719 6.368141 0.000450 -0.912435 -0.409222
-1.011496 4.995719 6.368141 -0.000482 -0.913054 -0.407838
-1.013062 4.996244 6.366967 -0.000482 -0.913054 -0.407838
-1.014348 4.996884 6.365537 -0.000482 -0.913054 -0.407838
-1.014348 4.996884 6.365537 0.000829 -0.912681 -0.408671
-1.015303 4.997613 6.363906 0.000829 -0.912681 -0.408671
-1.015891 4.998405 6.362136 0.000829 -0.912681 -0.408671
-1.015891 4.998405 6.362136 0.001096 -0.912848 -0.408298
-1.016090 4.999228 6.360295 0.001096 -0.912848 -0.408298
-1.015891 5.000052 6.358455 0.001096 -0.912848 -0.408298
-1.015891 5.000052 6.358455 0.001196 -0.913024 -0.407905
-1.015303 5.000844 6.356685 0.001196 -0.913024 -0.407905
-1.014348 5.001574 6.355053 0.001196 -0.913024 -0.407905
-1.014348 5.001574 6.355053 -0.000682 -0.912613 -0.408824
-1.013062 5.002213 6.353624 -0.000682 -0.912613 -0.408824
-1.011496 5.002738 6.352450 -0.000682 -0.912613 -0.408824
-1.011496 5.002738 6.352450 0.000212 -0.913024 -0.407905
-1.009709 5.003128 6.351578 0.000212 -0.913024 -0.407905
-1.007770 5.003368 6.351041 0.000212 -0.913024 -0.407905
-1.007770 5.003368 6.351041 -0.000000 -0.912815 -0.408373
-1.003737 5.003368 6.351041 -0.000000 -0.912815 -0.408373
-1.000011 5.002738 6.352450 -0.000000 -0.912815 -0.408373
-1.000011 5.002738 6.352450 0.000293 -0.912772 -0.408468
-0.997159 5.001574 6.355053 0.000293 -0.912772 -0.408468
-0.995616 5.000052 6.358455 0.000293 -0.912772 -0.408468
-0.995616 5.000052 6.358455 0.000156 -0.912848 -0.408299
-0.995616 4.998405 6.362136 0.000156 -0.912848 -0.408299
-0.997159 4.996884 6.365537 0.000156 -0.912848 -0.408299
-0.997159 4.996884 6.365537 -0.000037 -0.912843 -0.408312
-1.000011 4.995719 6.368141 -0.000037 -0.912843 -0.408312
-1.003737 4.995090 6.369549 -0.000037 -0.912843 -0.408312
-1.003737 4.995090 6.369549 0.000000 -0.912879 -0.408231
-1.007770 4.995090 6.369549 0.000000 -0.912879 -0.408231
-1.011496 4.995719 6.368141 0.000000 -0.912879 -0.408231
-1.011496 4.995719 6.368141 0.000149 -0.912797 -0.408414
-1.014348 4.996884 6.365537 0.000149 -0.912797 -0.408414
-1.015891 4.998405 6.362136 0.000149 -0.912797 -0.408414
-1.015891 4.998405 6.362136 0.000156 -0.912848 -0.408299
-1.015891 5.000052 6.358455 0.000156 -0.912848 -0.408299
-1.014348 5.001574 6.355053 0.000156 -0.912848 -0.408299
-1.014348 5.001574 6.355053 0.000133 -0.912946 -0.408080
-1.011496 5.002738 6.352450 0.000133 -0.912946 -0.408080
-1.007770 5.003368 6.351041 0.000133 -0.912946 -0.408080
-1.007770 5.003368 6.351041 -0.000021 -0.912858 -0.408277
-1.000011 5.002738 6.352450 -0.000021 -0.912858 -0.408277
-0.995616 5.000052 6.358455 -0.000021 -0.912858 -0.408277
-0.995616 5.000052 6.358455 -0.000055 -0.912831 -0.408337
-0.997159 4.996884 6.365537 -0.000055 -0.912831 -0.408337
-1.003737 4.995090 6.369549 -0.000055 -0.912831 -0.408337
-1.003737 4.995090 6.369549 0.000023 -0.912831 -0.408337
-1.011496 4.995719 6.368141 0.000023 -0.912831 -0.408337
-1.015891 4.998405 6.362136 0.000023 -0.912831 -0.408337
-1.015891 4.998405 6.362136 -0.000055 -0.912831 -0.408337
-1.014348 5.001574 6.355053 -0.000055 -0.912831 -0.408337
-1.007770 5.003368 6.351041 -0.000055 -0.912831 -0.408337
-1.007770 5.003368 6.351041 -0.000001 -0.912846 -0.408304
-0.995616 5.000052 6.358455 -0.000001 -0.912846 -0.408304
-1.003737 4.995090 6.369549 -0.000001 -0.912846 -0.408304
-1.015891 4.998405 6.362136 -0.000001 -0.912846 -0.408304
1.005753 5.003449 6.350860 -0.097962 0.406348 -0.908452
1.003737 5.003368 6.351041 -0.097962 0.406348 -0.908452
1.003737 6.304948 6.933235 -0.097962 0.406348 -0.908452
1.005753 6.305029 6.933053 -0.097962 0.406348 -0.908452
1.003737 5.003368 6.351041 -0.290266 0.390733 -0.873541
1.001798 5.003128 6.351578 -0.290266 0.390733 -0.873541
1.001798 6.304708 6.933772 -0.290266 0.390733 -0.873541
1.003737 6.304948 6.933235 -0.290266 0.390733 -0.873541
1.001798 5.003128 6.351578 -0.471408 0.360096 -0.805050
1.000011 5.002738 6.352450 -0.471408 0.360096 -0.805050
1.000011 6.304318 6.934643 -0.471408 0.360096 -0.805050
1.001798 6.304708 6.933772 -0.471408 0.360096 -0.805050
1.000011 5.002738 6.352450 -0.634438 0.315614 -0.705603
0.998445 5.002213 6.353624 -0.634438 0.315614 -0.705603
0.998445 6.303793 6.935817 -0.634438 0.315614 -0.705603
1.000011 6.304318 6.934643 -0.634438 0.315614 -0.705603
0.998445 5.002213 6.353624 -0.772974 0.259049 -0.579142
0.997159 5.001574 6.355053 -0.772974 0.259049 -0.579142
0.997159 6.303154 6.937247 -0.772974 0.259049 -0.579142
0.998445 6.303793 6.935817 -0.772974 0.259049 -0.579142
0.997159 5.001574 6.355053 -0.881942 0.192461 -0.430275
0.996204 5.000844 6.356685 -0.881942 0.192461 -0.430275
0.996204 6.302424 6.938878 -0.881942 0.192461 -0.430275
0.997159 6.303154 6.937247 -0.881942 0.192461 -0.430275
0.996204 5.000844 6.356685 -0.956935 0.118534 -0.265001
0.995616 5.000052 6.358455 -0.956935 0.118534 -0.265001
0.995616 6.301632 6.940648 -0.956935 0.118534 -0.265001
0.996204 6.302424 6.938878 -0.956935 0.118534 -0.265001
0.995616 5.000052 6.358455 -0.995185 0.040020 -0.089471
0.995417 4.999228 6.360295 -0.995185 0.040020 -0.089471
0.995417 6.300809 6.942489 -0.995185 0.040020 -0.089471
0.995616 6.301632 6.940648 -0.995185 0.040020 -0.089471
0.995417 4.999228 6.360295 -0.995184 -0.040024 0.089480
0.995616 4.998405 6.362136 -0.995184 -0.040024 0.089480
0.995616 6.299985 6.944329 -0.995184 -0.040024 0.089480
0.995417 6.300809 6.942489 -0.995184 -0.040024 0.089480
0.995616 4.998405 6.362136 -0.956944 -0.118522 0.264975
0.996204 4.997613 6.363906 -0.956944 -0.118522 0.264975
0.996204 6.299194 6.946099 -0.956944 -0.118522 0.264975
0.995616 6.299985 6.944329 -0.956944 -0.118522 0.264975
0.996204 4.997613 6.363906 -0.881933 -0.192468 0.430291
0.997159 4.996884 6.365537 -0.881933 -0.192468 0.430291
0.997159 6.298464 6.947731 -0.881933 -0.192468 0.430291
0.996204 6.299194 6.946099 -0.881933 -0.192468 0.430291
0.997159 4.996884 6.365537 -0.772990 -0.259040 0.579123
0.998445 4.996244 6.366967 -0.772990 -0.259040 0.579123
0.998445 6.297824 6.949160 -0.772990 -0.259040 0.579123
0.997159 6.298464 6.947731 -0.772990 -0.259040 0.579123
0.998445 4.996244 6.366967 -0.634438 -0.315614 0.705603
1.000011 4.995719 6.368141 -0.634438 -0.315614 0.705603
1.000011 6.297300 6.950334 -0.634438 -0.315614 0.705603
0.998445 6.297824 6.949160 -0.634438 -0.315614 0.705603
1.000011 4.995719 6.368141 -0.471408 -0.360096 0.805050
1.001798 4.995329 6.369012 -0.471408 -0.360096 0.805050
1.001798 6.296910 6.951206 -0.471408 -0.360096 0.805050
1.000011 6.297300 6.950334 -0.471408 -0.360096 0.805050
1.001798 4.995329 6.369012 -0.290266 -0.390733 0.873541
1.003737 4.995090 6.369549 -0.290266 -0.390733 0.873541
1.003737 6.296669 6.951743 -0.290266 -0.390733 0.873541
1.001798 6.296910 6.951206 -0.290266 -0.390733 0.873541
1.003737 4.995090 6.369549 -0.097962 -0.406348 0.908452
1.005753 4.995008 6.369730 -0.097962 -0.406348 0.908452
1.005753 6.296588 6.951924 -0.097962 -0.406348 0.908452
1.003737 6.296669 6.951743 -0.097962 -0.406348 0.908452
1.005753 4.995008 6.369730 0.097974 -0.406348 0.908451
1.007770 4.995090 6.369549 0.097974 -0.406348 0.908451
1.007770 6.296669 6.951743 0.097974 -0.406348 0.908451
1.005753 6.296588 6.951924 0.097974 -0.406348 0.908451
1.007770 4.995090 6.369549 0.290266 -0.390733 0.873541
1.009709 4.995329 6.369012 0.290266 -0.390733 0.873541
1.009709 6.296910 6.951206 0.290266 -0.390733 0.873541
1.007770 6.296669 6.951743 0.290266 -0.390733 0.873541
1.009709 4.995329 6.369012 0.471408 -0.360096 0.805050
1.011496 4.995719 6.368141 0.471408 -0.360096 0.805050
1.011496 6.297300 6.950334 0.471408 -0.360096 0.805050
1.009709 6.296910 6.951206 0.471408 -0.360096 0.805050
1.011496 4.995719 6.368141 0.634381 -0.315633 0.705646
1.013062 4.996244 6.366967 0.634381 -0.315633 0.705646
1.013062 6.297824 6.949160 0.634381 -0.315633 0.705646
1.011496 6.297300 6.950334 0.634381 -0.315633 0.705646
1.013062 4.996244 6.366967 0.773048 -0.259012 0.579059
1.014347 4.996884 6.365537 0.773048 -0.259012 0.579059
1.014347 6.298464 6.947731 0.773048 -0.259012 0.579059
1.013062 6.297824 6.949160 0.773048 -0.259012 0.579059
1.014347 4.996884 6.365537 0.881933 -0.192468 0.430291
1.015303 4.997613 6.363906 0.881933 -0.192468 0.430291
1.015303 6.299194 6.946099 0.881933 -0.192468 0.430291
1.014347 6.298464 6.947731 0.881933 -0.192468 0.430291
1.015303 4.997613 6.363906 0.956911 -0.118566 0.265073
1.015891 4.998405 6.362136 0.956911 -0.118566 0.265073
1.015891 6.299985 6.944329 0.956911 -0.118566 0.265073
1.015303 6.299194 6.946099 0.956911 -0.118566 0.265073
1.015891 4.998405 6.362136 0.995196 -0.039977 0.089374
1.016089 4.999228 6.360295 0.995196 -0.039977 0.089374
1.016089 6.300809 6.942489 0.995196 -0.039977 0.089374
1.015891 6.299985 6.944329 0.995196 -0.039977 0.089374
1.016089 4.999228 6.360295 0.995197 0.039972 -0.089364
1.015891 5.000052 6.358455 0.995197 0.039972 -0.089364
1.015891 6.301632 6.940648 0.995197 0.039972 -0.089364
1.016089 6.300809 6.942489 0.995197 0.039972 -0.089364
1.015891 5.000052 6.358455 0.956902 0.118578 -0.265099
1.015303 5.000844 6.356685 0.956902 0.118578 -0.265099
1.015303 6.302424 6.938878 0.956902 0.118578 -0.265099
1.015891 6.301632 6.940648 0.956902 0.118578 -0.265099
1.015303 5.000844 6.356685 0.881942 0.192461 -0.430275
1.014347 5.001574 6.355053 0.881942 0.192461 -0.430275
1.014347 6.303154 6.937247 0.881942 0.192461 -0.430275
1.015303 6.302424 6.938878 0.881942 0.192461 -0.430275
1.014347 5.001574 6.355053 0.773031 0.259020 -0.579078
1.013062 5.002213 6.353624 0.773031 0.259020 -0.579078
1.013062 6.303793 6.935817 0.773031 0.259020 -0.579078
1.014347 6.303154 6.937247 0.773031 0.259020 -0.579078
1.013062 5.002213 6.353624 0.634381 0.315633 -0.705646
1.011496 5.002738 6.352450 0.634381 0.315633 -0.705646
1.011496 6.304318 6.934643 0.634381 0.315633 -0.705646
1.013062 6.303793 6.935817 0.634381 0.315633 -0.705646
1.011496 5.002738 6.352450 0.471408 0.360096 -0.805050
1.009709 5.003128 6.351578 0.471408 0.360096 -0.805050
1.009709 6.304708 6.933772 0.471408 0.360096 -0.805050
1.011496 6.304318 6.934643 0.471408 0.360096 -0.805050
1.005753 6.305029 6.933053 -0.000079 0.913148 0.407629
1.003737 6.304948 6.933235 -0.000079 0.913148 0.407629
1.001798 6.304708 6.933772 -0.000079 0.913148 0.407629
1.001798 6.304708 6.933772 -0.000133 0.912881 0.408226
1.000011 6.304318 6.934643 -0.000133 0.912881 0.408226
0.998445 6.303793 6.935817 -0.000133 0.912881 0.408226
0.998445 6.303793 6.935817 0.000258 0.912806 0.408392
0.997159 6.303154 6.937247 0.000258 0.912806 0.408392
0.996204 6.302424 6.938878 0.000258 0.912806 0.408392
0.996204 6.302424 6.938878 -0.002252 0.913020 0.407908
0.995616 6.301632 6.940648 -0.002252 0.913020 0.407908
0.995417 6.300809 6.942489 -0.002252 0.913020 0.407908
0.995417 6.300809 6.942489 -0.000858 0.912769 0.408474
0.995616 6.299985 6.944329 -0.000858 0.912769 0.408474
0.996204 6.299194 6.946099 -0.000858 0.912769 0.408474
0.996204 6.299194 6.946099 0.001147 0.913112 0.407707
0.997159 6.298464 6.947731 0.001147 0.913112 0.407707
0.998445 6.297824 6.949160 0.001147 0.913112 0.407707
0.998445 6.297824 6.949160 0.000340 0.913122 0.407687
1.000011 6.297300 6.950334 0.000340 0.913122 0.407687
1.001798 6.296910 6.951206 0.000340 0.913122 0.407687
1.001798 6.296910 6.951206 -0.000028 0.912700 0.408629
1.003737 6.296669 6.951743 -0.000028 0.912700 0.408629
1.005753 6.296588 6.951924 -0.000028 0.912700 0.408629
1.005753 6.296588 6.951924 0.000028 0.912701 0.408629
1.007770 6.296669 6.951743 0.000028 0.912701 0.408629
1.009709 6.296910 6.951206 0.000028 0.912701 0.408629
1.009709 6.296910 6.951206 -0.000340 0.913122 0.407686
1.011496 6.297300 6.950334 -0.000340 0.913122 0.407686
1.013062 6.297824 6.949160 -0.000340 0.913122 0.407686
1.013062 6.297824 6.949160 -0.001148 0.913112 0.407706
1.014347 6.298464 6.947731 -0.001148 0.913112 0.407706
1.015303 6.299194 6.946099 -0.001148 0.913112 0.407706
1.015303 6.299194 6.946099 0.000857 0.912769 0.408474
1.015891 6.299985 6.944329 0.000857 0.912769 0.408474
1.016089 6.300809 6.942489 0.000857 0.912769 0.408474
1.016089 6.300809 6.942489 0.002249 0.913020 0.407909
1.015891 6.301632 6.940648 0.002249 0.913020 0.407909
1.015303 6.302424 6.938878 0.002249 0.913020 0.407909
1.015303 6.302424 6.938878 -0.000258 0.912806 0.408392
1.014347 6.303154 6.937247 -0.000258 0.912806 0.408392
1.013062 6.303793 6.935817 -0.000258 0.912806 0.408392
1.013062 6.303793 6.935817 0.000133 0.912881 0.408226
1.011496 6.304318 6.934643 0.000133 0.912881 0.408226
1.009709 6.304708 6.933772 0.000133 0.912881 0.408226
1.009709 6.304708 6.933772 0.000080 0.913148 0.407629
1.007770 6.304948 6.933235 0.000080 0.913148 0.407629
1.005753 6.305029 6.933053 0.000080 0.913148 0.407629
1.005753 6.305029 6.933053 0.000128 0.912721 0.408583
1.001798 6.304708 6.933772 0.000128 0.912721 0.408583
0.998445 6.303793 6.935817 0.000128 0.912721 0.408583
0.998445 6.303793 6.935817 0.000195 0.912824 0.408354
0.996204 6.302424 6.938878 0.000195 0.912824 0.408354
0.995417 6.300809 6.942489 0.000195 0.912824 0.408354
0.995417 6.300809 6.942489 0.000206 0.912856 0.408281
0.996204 6.299194 6.946099 0.000206 0.912856 0.408281
0.998445 6.297824 6.949160 0.000206 0.912856 0.408281
0.998445 6.297824 6.949160 0.000108 0.912980 0.408004
1.001798 6.296910 6.951206 0.000108 0.912980 0.408004
1.005753 6.296588 6.951924 0.000108 0.912980 0.408004
1.005753 6.296588 6.951924 -0.000108 0.912980 0.408004
1.009709 6.296910 6.951206 -0.000108 0.912980 0.408004
1.013062 6.297824 6.949160 -0.000108 0.912980 0.408004
1.013062 6.297824 6.949160 -0.000206 0.912856 0.408281
1.015303 6.299194 6.946099 -0.000206 0.912856 0.408281
1.016089 6.300809 6.942489 -0.000206 0.912856 0.408281
1.016089 6.300809 6.942489 -0.000195 0.912824 0.408354
1.015303 6.302424 6.938878 -0.000195 0.912824 0.408354
1.013062 6.303793 6.935817 -0.000195 0.912824 0.408354
1.013062 6.303793 6.935817 -0.000128 0.912721 0.408584
1.009709 6.304708 6.933772 -0.000128 0.912721 0.408584
1.005753 6.305029 6.933053 -0.000128 0.912721 0.408584
1.005753 6.305029 6.933053 -0.000011 0.912859 0.408276
0.998445 6.303793 6.935817 -0.000011 0.912859 0.408276
0.995417 6.300809 6.942489 -0.000011 0.912859 0.408276
0.995417 6.300809 6.942489 -0.000064 0.912811 0.408383
0.998445 6.297824 6.949160 -0.000064 0.912811 0.408383
1.005753 6.296588 6.951924 -0.000064 0.912811 0.408383
1.005753 6.296588 6.951924 0.000064 0.912811 0.408383
1.013062 6.297824 6.949160 0.000064 0.912811 0.408383
1.016089 6.300809 6.942489 0.000064 0.912811 0.408383
1.016089 6.300809 6.942489 0.000011 0.912859 0.408276
1.013062 6.303793 6.935817 0.000011 0.912859 0.408276
1.005753 6.305029 6.933053 0.000011 0.912859 0.408276
1.005753 6.305029 6.933053 0.000021 0.912845 0.408305
0.995417 6.300809 6.942489 0.000021 0.912845 0.408305
1.005753 6.296588 6.951924 0.000021 0.912845 0.408305
1.005753 6.296588 6.951924 -0.000021 0.912845 0.408305
1.016089 6.300809 6.942489 -0.000021 0.912845 0.408305
1.005753 6.305029 6.933053 -0.000021 0.912845 0.408305
1.009709 5.003128 6.351578 0.290266 0.390733 -0.873541
1.007770 5.003368 6.351041 0.290266 0.390733 -0.873541
1.007770 6.304948 6.933235 0.290266 0.390733 -0.873541
1.009709 6.304708 6.933772 0.290266 0.390733 -0.873541
1.007770 5.003368 6.351041 0.097974 0.406348 -0.908451
1.005753 5.003449 6.350860 0.097974 0.406348 -0.908451
1.005753 6.305029 6.933053 0.097974 0.406348 -0.908451
1.007770 6.304948 6.933235 0.097974 0.406348 -0.908451
1.003737 5.003368 6.351041 0.000000 -0.912818 -0.408366
1.005753 5.003449 6.350860 0.000000 -0.912818 -0.408366
1.007770 5.003368 6.351041 0.000000 -0.912818 -0.408366
1.007770 5.003368 6.351041 -0.000212 -0.913024 -0.407905
1.009709 5.003128 6.351578 -0.000212 -0.913024 -0.407905
1.011496 5.002738 6.352450 -0.000212 -0.913024 -0.407905
1.011496 5.002738 6.352450 0.000682 -0.912613 -0.408823
1.013062 5.002213 6.353624 0.000682 -0.912613 -0.408823
1.014347 5.001574 6.355053 0.000682 -0.912613 -0.408823
1.014347 5.001574 6.355053 -0.001197 -0.913024 -0.407905
1.015303 5.000844 6.356685 -0.001197 -0.913024 -0.407905
1.015891 5.000052 6.358455 -0.001197 -0.913024 -0.407905
1.015891 5.000052 6.358455 -0.001097 -0.912848 -0.408298
1.016089 4.999228 6.360295 -0.001097 -0.912848 -0.408298
1.015891 4.998405 6.362136 -0.001097 -0.912848 -0.408298
1.015891 4.998405 6.362136 -0.000830 -0.912681 -0.408671
1.015303 4.997613 6.363906 -0.000830 -0.912681 -0.408671
1.014347 4.996884 6.365537 -0.000830 -0.912681 -0.408671
1.014347 4.996884 6.365537 0.000482 -0.913054 -0.407838
1.013062 4.996244 6.366967 0.000482 -0.913054 -0.407838
1.011496 4.995719 6.368141 0.000482 -0.913054 -0.407838
1.011496 4.995719 6.368141 -0.000450 -0.912435 -0.409222
1.009709 4.995329 6.369012 -0.000450 -0.912435 -0.409222
1.007770 4.995090 6.369549 -0.000450 -0.912435 -0.409222
1.007770 4.995090 6.369549 0.000000 -0.912818 -0.408366
1.005753 4.995008 6.369730 0.000000 -0.912818 -0.408366
1.003737 4.995090 6.369549 0.000000 -0.912818 -0.408366
1.003737 4.995090 6.369549 0.000450 -0.912435 -0.409222
1.001798 4.995329 6.369012 0.000450 -0.912435 -0.409222
1.000011 4.995719 6.368141 0.000450 -0.912435 -0.409222
1.000011 4.995719 6.368141 -0.000482 -0.913054 -0.407838
0.998445 4.996244 6.366967 -0.000482 -0.913054 -0.407838
0.997159 4.996884 6.365537 -0.000482 -0.913054 -0.407838
0.997159 4.996884 6.365537 0.000829 -0.912681 -0.408671
0.996204 4.997613 6.363906 0.000829 -0.912681 -0.408671
0.995616 4.998405 6.362136 0.000829 -0.912681 -0.408671
0.995616 4.998405 6.362136 0.001096 -0.912848 -0.408298
0.995417 4.999228 6.360295 0.001096 -0.912848 -0.408298
0.995616 5.000052 6.358455 0.001096 -0.912848 -0.408298
0.995616 5.000052 6.358455 0.001196 -0.913024 -0.407905
0.996204 5.000844 6.356685 0.001196 -0.913024 -0.407905
0.997159 5.001574 6.355053 0.001196 -0.913024 -0.407905
0.997159 5.001574 6.355053 -0.000682 -0.912613 -0.408824
0.998445 5.002213 6.353624 -0.000682 -0.912613 -0.408824
1.000011 5.002738 6.352450 -0.000682 -0.912613 -0.408824
1.000011 5.002738 6.352450 0.000212 -0.913024 -0.407905
1.001798 5.003128 6.351578 0.000212 -0.913024 -0.407905
1.003737 5.003368 6.351041 0.000212 -0.913024 -0.407905
1.003737 5.003368 6.351041 -0.000000 -0.912815 -0.408373
1.007770 5.003368 6.351041 -0.000000 -0.912815 -0.408373
1.011496 5.002738 6.352450 -0.000000 -0.912815 -0.408373
1.011496 5.002738 6.352450 0.000293 -0.912772 -0.408468
1.014347 5.001574 6.355053 0.000293 -0.912772 -0.408468
1.015891 5.000052 6.358455 0.000293 -0.912772 -0.408468
1.015891 5.000052 6.358455 0.000156 -0.912848 -0.408299
1.015891 4.998405 6.362136 0.000156 -0.912848 -0.408299
1.014347 4.996884 6.365537 0.000156 -0.912848 -0.408299
1.014347 4.996884 6.365537 -0.000037 -0.912843 -0.408312
1.011496 4.995719 6.368141 -0.000037 -0.912843 -0.408312
1.007770 4.995090 6.369549 -0.000037 -0.912843 -0.408312
1.007770 4.995090 6.369549 0.000000 -0.912879 -0.408231
1.003737 4.995090 6.369549 0.000000 -0.912879 -0.408231
1.000011 4.995719 6.368141 0.000000 -0.912879 -0.408231
1.000011 4.995719 6.368141 0.000149 -0.912797 -0.408414
0.997159 4.996884 6.365537 0.000149 -0.912797 -0.408414
0.995616 4.998405 6.362136 0.000149 -0.912797 -0.408414
0.995616 4.998405 6.362136 0.000156 -0.912848 -0.408299
0.995616 5.000052 6.358455 0.000156 -0.912848 -0.408299
0.997159 5.001574 6.355053 0.000156 -0.912848 -0.408299
0.997159 5.001574 6.355053 0.000133 -0.912946 -0.408080
1.000011 5.002738 6.352450 0.000133 -0.912946 -0.408080
1.003737 5.003368 6.351041 0.000133 -0.912946 -0.408080
1.003737 5.003368 6.351041 -0.000021 -0.912858 -0.408277
1.011496 5.002738 6.352450 -0.000021 -0.912858 -0.408277
1.015891 5.000052 6.358455 -0.000021 -0.912858 -0.408277
1.015891 5.000052 6.358455 -0.000055 -0.912831 -0.408337
1.014347 4.996884 6.365537 -0.000055 -0.912831 -0.408337
1.007770 4.995090 6.369549 -0.000055 -0.912831 -0.408337
1.007770 4.995090 6.369549 0.000023 -0.912831 -0.408337
1.000011 4.995719 6.368141 0.000023 -0.912831 -0.408337
0.995616 4.998405 6.362136 0.000023 -0.912831 -0.408337
0.995616 4.998405 6.362136 -0.000055 -0.912831 -0.408337
0.997159 5.001574 6.355053 -0.000055 -0.912831 -0.408337
1.003737 5.003368 6.351041 -0.000055 -0.912831 -0.408337
1.003737 5.003368 6.351041 -0.000001 -0.912846 -0.408304
1.015891 5.000052 6.358455 -0.000001 -0.912846 -0.408304
1.007770 4.995090 6.369549 -0.000001 -0.912846 -0.408304
0.995616 4.998405 6.362136 -0.000001 -0.912846 -0.408304
4 0 1 2 3
4 4 5 6 7
4 8 9 10 11
4 12 13 14 15
4 16 17 18 19
4 20 21 22 23
4 24 25 26 27
4 28 29 30 31
4 32 33 34 35
4 36 37 38 39
4 40 41 42 43
4 44 45 46 47
4 48 49 50 51
4 52 53 54 55
4 56 57 58 59
4 60 61 62 63
4 64 65 66 67
4 68 69 70 71
4 72 73 74 75
4 76 77 78 79
4 80 81 82 83
4 84 85 86 87
4 88 89 90 91
4 92 93 94 95
4 96 97 98 99
4 100 101 102 103
4 104 105 106 107
4 108 109 110 111
4 112 113 114 115
4 116 117 118 119
3 120 121 122
3 123 124 125
3 126 127 128
3 129 130 131
3 132 133 134
3 135 136 137
3 138 139 140
3 141 142 143
3 144 145 146
3 147 148 149
3 150 151 152
3 153 154 155
3 156 157 158
3 159 160 161
3 162 163 164
3 165 166 167
3 168 169 170
3 171 172 173
3 174 175 176
3 177 178 179
3 180 181 182
3 183 184 185
3 186 187 188
3 189 190 191
3 192 193 194
3 195 196 197
3 198 199 200
3 201 202 203
3 204 205 206
3 206 207 204
4 208 209 210 211
4 212 213 214 215
3 216 217 218
3 219 220 221
3 222 223 224
3 225 226 227
3 228 229 230
3 231 232 233
3 234 235 236
3 237 238 239
3 240 241 242
3 243 244 245
3 246 247 248
3 249 250 251
3 252 253 254
3 255 256 257
3 258 259 260
3 261 262 263
3 264 265 266
3 267 268 269
3 270 271 272
3 273 274 275
3 276 277 278
3 279 280 281
3 282 283 284
3 285 286 287
3 288 289 290
3 291 292 293
3 294 295 296
3 297 298 299
3 300 301 302
3 302 303 300
4 304 305 306 307
4 308 309 310 311
4 312 313 314 315
4 316 317 318 319
4 320 321 322 323
4 324 325 326 327
4 328 329 330 331
4 332 333 334 335
4 336 337 338 339
4 340 341 342 343
4 344 345 346 347
4 348 349 350 351
4 352 353 354 355
4 356 357 358 359
4 360 361 362 363
4 364 365 366 367
4 368 369 370 371
4 372 373 374 375
4 376 377 378 379
4 380 381 382 383
4 384 385 386 387
4 388 389 390 391
4 392 393 394 395
4 396 397 398 399
4 400 401 402 403
4 404 405 406 407
4 408 409 410 411
4 412 413 414 415
4 416 417 418 419
4 420 421 422 423
3 424 425 426
3 427 428 429
3 430 431 432
3 433 434 435
3 436 437 438
3 439 440 441
3 442 443 444
3 445 446 447
3 448 449 450
3 451 452 453
3 454 455 456
3 457 458 459
3 460 461 462
3 463 464 465
3 466 467 468
3 469 470 471
3 472 473 474
3 475 476 477
3 478 479 480
3 481 482 483
3 484 485 486
3 487 488 489
3 490 491 492
3 493 494 495
3 496 497 498
3 499 500 501
3 502 503 504
3 505 506 507
3 508 509 510
3 511 512 513
4 514 515 516 517
4 518 519 520 521
3 522 523 524
3 525 526 527
3 528 529 530
3 531 532 533
3 534 535 536
3 537 538 539
3 540 541 542
3 543 544 545
3 546 547 548
3 549 550 551
3 552 553 554
3 555 556 557
3 558 559 560
3 561 562 563
3 564 565 566
3 567 568 569
3 570 571 572
3 573 574 575
3 576 577 578
3 579 580 581
3 582 583 584
3 585 586 587
3 588 589 590
3 591 592 593
3 594 595 596
3 597 598 599
3 600 601 602
3 603 604 605
3 606 607 608
3 608 609 606
